# xmcd
# Track frame offsets:
# 150
# 12448
# 21467
# 35713
# 47529
# 59524
# 76487
# 87911
# 101228
# 117681
# 130655
# 143430
# 154387
# 165201
# 175859
# 189449
# 205298
# 218196
# 234865
# 245646
#
# Disc length: 3444 seconds
# Revision: 0
# Processed by: cddbd v1.5.1PL0 Copyright (c) Steve Scherf et al.
# Submitted via: VisiTrax 2.9.9.209 - For more info visit www.synapsa.com
#
DISCID=160d7214
DTITLE=Various Artist - CountryGreats14
DYEAR=1900
DGENRE=
TTITLE0=Sandy Posey - Single Girl
TTITLE1=Roger Miller - Chug-A-Lug
TTITLE2=BJ Thomas - I'm So Lonesome I Could Cry
TTITLE3=Bonnie Guitar - Dark Moon
TTITLE4=Red Steagall - Truck Driving Man
TTITLE5=Ferlin Husky - Giddyup Go
TTITLE6=Johnny Paycheck - Slide Off Your Satin Sheets
TTITLE7=Don Williams - Where Do We Go From Here
TTITLE8=Lee Conway - Just Another Cowboy Song
TTITLE9=Billy Ed Wheeler - Ode To The Little Brown Shack Out Back
TTITLE10=Frankie Laine - Cry Of The Wild Goose
TTITLE11=Johnny Russell - Blue Eyes Crying In The Rain
TTITLE12=The Fendermen - Mule Skinner Blues
TTITLE13=Patsy Cline - I Can See An Angel
TTITLE14=Nev Nicholls - Lights On The Hill
TTITLE15=Johnny Chester - Highway 31
TTITLE16=Faron Young - Apartment #9
TTITLE17=Don Fardon - Fear Of Losing You
TTITLE18=Conway Twitty - Big Town
TTITLE19=Jimmie Rodgers - Any Old Time
EXTD=
EXTT0=
EXTT1=
EXTT2=
EXTT3=
EXTT4=
EXTT5=
EXTT6=
EXTT7=
EXTT8=
EXTT9=
EXTT10=
EXTT11=
EXTT12=
EXTT13=
EXTT14=
EXTT15=
EXTT16=
EXTT17=
EXTT18=
EXTT19=
PLAYORDER=
